<?xml version="1.0" standalone="no"?>
<!DOCTYPE svg PUBLIC "-//W3C//DTD SVG 20010904//EN"
 "http://www.w3.org/TR/2001/REC-SVG-20010904/DTD/svg10.dtd">
<svg version="1.0" xmlns="http://www.w3.org/2000/svg"
 width="512.000000pt" height="512.000000pt" viewBox="0 0 512.000000 512.000000"
 preserveAspectRatio="xMidYMid meet">

<g transform="translate(0.000000,512.000000) scale(0.100000,-0.100000)"
fill="#000000" stroke="none">
<path d="M1620 5109 c-165 -32 -303 -178 -330 -349 -5 -36 -10 -201 -10 -367
l0 -303 -125 0 -125 0 0 83 c-1 141 -16 224 -58 312 -129 267 -452 368 -711
222 -121 -69 -226 -215 -250 -351 -8 -41 -11 -657 -11 -1970 0 -2091 -3 -1982
59 -2105 46 -89 141 -183 232 -226 41 -19 98 -39 128 -45 35 -6 676 -10 1850
-10 1988 0 1864 -4 1987 65 154 86 264 263 264 425 0 46 -4 60 -22 77 -34 30
-55 34 -92 19 -35 -15 -56 -54 -56 -107 0 -42 -36 -132 -71 -176 -45 -57 -127
-108 -195 -122 -45 -9 -474 -11 -1854 -9 l-1795 3 -56 26 c-109 52 -177 138
-198 253 -14 73 -14 370 -1 449 27 165 153 277 320 285 98 5 174 -22 243 -87
67 -62 97 -126 112 -235 12 -89 81 -124 142 -72 l28 24 3 1551 2 1551 125 0
125 0 2 -987 3 -988 134 -325 c73 -179 144 -340 158 -358 43 -57 72 -66 233
-70 166 -5 212 6 231 55 24 63 -16 113 -91 113 -34 0 -50 4 -50 13 0 7 52 140
115 296 l115 284 0 1406 c0 1493 1 1441 -46 1532 -84 163 -278 254 -464 218z
m195 -188 c51 -22 103 -74 126 -126 15 -33 19 -67 19 -197 l0 -158 -255 0
-255 0 0 130 c0 151 11 210 48 265 71 102 199 137 317 86z m-1160 -351 c108
-49 175 -140 195 -261 10 -66 15 -3069 5 -3069 -3 0 -28 15 -55 34 -94 65
-150 81 -285 81 -135 0 -191 -16 -285 -81 -27 -19 -52 -34 -55 -34 -10 0 -5
3013 5 3074 12 77 42 137 94 189 104 103 248 129 381 67z m1305 -1360 c0 -577
-2 -1050 -5 -1050 -4 0 -19 7 -35 15 -16 8 -52 20 -80 26 l-50 11 0 744 0 745
-25 24 c-33 34 -83 34 -116 -1 l-24 -26 -3 -744 -2 -744 -28 -6 c-15 -3 -51
-14 -80 -25 -30 -10 -56 -19 -58 -19 -2 0 -4 473 -4 1050 l0 1050 255 0 255 0
0 -1050z m-121 -1186 c20 -8 52 -26 73 -40 l36 -25 -110 -272 c-61 -150 -114
-283 -120 -297 -8 -22 -24 11 -129 269 -95 234 -116 297 -107 308 17 21 104
63 152 73 53 12 159 3 205 -16z"/>
<path d="M3148 4840 c-49 -26 -83 -87 -98 -177 -7 -39 -16 -77 -20 -83 -5 -9
-25 0 -66 27 -113 77 -166 90 -237 59 -40 -18 -212 -191 -226 -229 -6 -16 -11
-50 -11 -76 0 -41 8 -60 55 -132 30 -46 51 -87 47 -90 -4 -3 -45 -13 -91 -22
-99 -20 -145 -46 -171 -98 -17 -33 -20 -59 -20 -187 l0 -149 30 -41 c37 -52
50 -59 163 -83 50 -11 93 -22 95 -24 2 -2 -22 -41 -52 -87 -51 -76 -56 -88
-56 -138 0 -73 29 -119 138 -221 122 -115 179 -121 314 -34 95 62 84 69 113
-68 18 -83 44 -125 99 -155 25 -14 58 -17 177 -17 142 0 146 1 187 27 51 35
68 66 92 174 10 47 20 87 22 89 2 2 40 -20 85 -49 142 -92 186 -85 327 53 105
102 126 136 126 201 0 45 -14 77 -72 163 -22 32 -38 60 -36 62 2 2 45 13 96
24 105 23 144 46 172 101 17 34 20 59 20 180 0 157 -6 176 -64 228 -33 29 -72
41 -176 58 -22 4 -43 10 -46 15 -3 5 19 43 47 86 61 90 74 153 44 216 -26 55
-203 222 -244 230 -79 16 -106 8 -214 -65 -31 -21 -61 -37 -66 -34 -5 3 -11
24 -15 46 -17 105 -29 143 -59 177 -49 55 -78 63 -234 63 -117 -1 -144 -4
-175 -20z m292 -207 c30 -154 54 -195 134 -228 56 -24 103 -12 202 52 l86 56
71 -71 70 -71 -52 -79 c-63 -96 -76 -137 -61 -192 23 -87 73 -119 233 -150
l58 -12 -3 -101 -3 -101 -87 -18 c-133 -26 -176 -57 -198 -139 -15 -54 0 -101
61 -194 l51 -78 -68 -68 c-38 -38 -72 -69 -77 -69 -4 0 -34 17 -65 39 -85 57
-117 71 -162 71 -95 0 -151 -55 -175 -171 -8 -41 -17 -84 -20 -97 -5 -22 -8
-23 -107 -20 l-102 3 -18 89 c-21 106 -46 150 -101 177 -67 35 -128 24 -227
-41 l-81 -53 -71 70 -71 71 56 88 c50 76 57 93 57 136 0 62 -29 119 -74 147
-18 12 -74 29 -122 39 l-89 18 -3 101 -3 101 58 12 c145 29 193 55 219 116 30
73 18 125 -57 236 -22 31 -39 61 -39 65 0 5 31 39 69 77 l68 68 78 -51 c98
-64 141 -78 194 -63 82 25 113 68 137 189 8 43 17 84 19 91 3 8 33 12 104 12
l100 0 11 -57z"/>
<path d="M3206 4334 c-220 -53 -386 -266 -386 -493 0 -138 52 -263 148 -359
104 -104 219 -152 362 -152 139 0 259 50 358 150 204 203 203 510 -3 715 -134
134 -300 182 -479 139z m207 -169 c253 -66 340 -377 158 -563 -113 -116 -297
-134 -431 -44 -200 135 -200 425 1 562 48 32 126 58 184 59 17 1 57 -6 88 -14z"/>
<path d="M3924 2710 c-60 -30 -83 -68 -106 -180 l-21 -98 -84 54 c-96 62 -116
69 -180 59 -43 -6 -57 -16 -154 -113 -153 -152 -160 -197 -60 -346 29 -43 51
-79 49 -80 -1 -2 -43 -11 -93 -20 -99 -19 -149 -46 -180 -98 -18 -29 -20 -51
-20 -183 0 -133 2 -153 20 -180 44 -65 73 -80 212 -108 l62 -12 -53 -82 c-96
-147 -88 -194 57 -340 147 -146 191 -154 340 -57 l82 53 7 -27 c3 -15 13 -61
22 -102 17 -78 37 -109 91 -145 26 -17 51 -20 167 -23 126 -4 142 -2 184 18
60 30 90 77 109 175 9 44 18 86 20 93 3 8 32 -6 87 -42 148 -98 192 -89 345
67 92 93 102 106 108 149 10 64 2 88 -57 180 -28 43 -49 80 -47 82 2 2 42 11
89 21 169 33 199 77 200 283 0 111 -3 139 -19 170 -34 67 -76 91 -198 112 -40
7 -73 17 -73 22 0 5 17 35 39 66 98 146 96 200 -12 317 -117 129 -187 168
-267 150 -16 -4 -64 -29 -105 -56 -42 -27 -79 -49 -84 -49 -4 0 -14 33 -21 73
-32 184 -74 216 -285 217 -111 0 -136 -3 -171 -20z m294 -250 c24 -115 47
-154 106 -181 73 -33 126 -20 244 60 l59 40 71 -72 72 -72 -46 -69 c-79 -117
-88 -158 -55 -232 27 -59 66 -82 181 -106 l100 -21 0 -102 0 -101 -92 -18
c-50 -9 -104 -24 -119 -31 -58 -30 -97 -113 -85 -178 4 -19 31 -73 61 -119
l54 -83 -71 -72 -71 -71 -83 55 c-101 67 -155 78 -221 44 -60 -30 -82 -68
-105 -181 l-22 -101 -100 3 -100 3 -18 87 c-24 124 -54 172 -121 197 -66 25
-129 6 -242 -72 l-50 -35 -72 70 -71 71 56 85 c54 81 57 88 57 148 0 105 -45
146 -192 178 l-98 21 0 100 0 100 83 17 c112 24 144 39 178 84 25 32 29 47 29
99 0 59 -3 67 -57 147 l-56 85 71 71 72 71 83 -54 c93 -61 136 -73 192 -56 81
24 112 67 136 188 8 43 17 84 19 91 3 8 33 12 103 12 l99 0 21 -100z"/>
<path d="M4025 2213 c-16 -2 -52 -11 -80 -20 -296 -95 -443 -433 -306 -708 66
-132 193 -238 331 -275 64 -17 198 -15 265 5 189 55 336 222 366 417 52 329
-243 625 -576 581z m203 -195 c60 -22 139 -94 170 -154 66 -130 40 -294 -62
-397 -138 -137 -354 -132 -487 10 -66 71 -92 145 -87 248 5 94 33 158 96 221
97 97 231 123 370 72z"/>
<path d="M2250 1340 c-46 -46 -34 -111 25 -136 49 -20 610 -21 659 0 57 24 68
105 18 142 -13 10 -93 13 -349 14 -318 0 -334 -1 -353 -20z"/>
<path d="M1565 995 c-34 -33 -34 -83 1 -116 25 -24 29 -24 242 -27 242 -4 273
0 302 30 28 31 27 88 -3 116 -23 21 -30 22 -271 22 l-247 0 -24 -25z"/>
<path d="M2332 997 c-25 -26 -29 -82 -8 -109 7 -10 25 -22 40 -28 38 -14 693
-14 735 1 43 15 66 60 52 101 -21 58 -13 57 -422 58 l-376 0 -21 -23z"/>
<path d="M1565 655 c-34 -33 -34 -83 1 -116 l26 -24 856 -3 c471 -1 872 0 890
3 70 13 96 91 47 140 l-24 25 -886 0 -886 0 -24 -25z"/>
</g>
</svg>
