<?xml version="1.0" standalone="no"?>
<!DOCTYPE svg PUBLIC "-//W3C//DTD SVG 20010904//EN"
 "http://www.w3.org/TR/2001/REC-SVG-20010904/DTD/svg10.dtd">
<svg version="1.0" xmlns="http://www.w3.org/2000/svg"
 width="512.000000pt" height="512.000000pt" viewBox="0 0 512.000000 512.000000"
 preserveAspectRatio="xMidYMid meet">

<g transform="translate(0.000000,512.000000) scale(0.100000,-0.100000)"
fill="#000000" stroke="none">
<path d="M2065 5113 c-60 -12 -147 -50 -198 -86 -52 -37 -147 -145 -147 -168
0 -18 -85 -101 -124 -121 -28 -14 -73 -23 -148 -29 -124 -10 -209 -36 -285
-85 -132 -88 -196 -213 -212 -412 -6 -75 -15 -120 -29 -148 -20 -39 -103 -124
-121 -124 -5 0 -36 -20 -68 -44 -142 -107 -216 -297 -184 -471 6 -33 32 -103
58 -155 45 -88 48 -100 48 -170 0 -70 -3 -82 -49 -171 -83 -166 -87 -303 -12
-454 40 -81 113 -161 184 -201 121 -69 161 -134 173 -280 9 -121 21 -169 61
-248 64 -126 201 -222 354 -247 41 -6 74 -13 74 -15 0 -1 -112 -198 -250 -436
-277 -480 -278 -482 -221 -539 17 -17 40 -29 55 -29 14 0 152 34 307 76 155
41 285 72 289 67 4 -4 40 -134 80 -287 49 -186 81 -288 95 -303 29 -34 92 -41
126 -14 14 11 162 256 329 546 167 289 307 525 310 525 4 0 143 -236 309 -525
169 -293 315 -535 330 -546 34 -27 97 -21 126 13 13 15 46 121 94 303 41 154
78 284 81 288 4 5 135 -25 290 -67 155 -42 293 -76 306 -76 15 0 38 12 55 29
57 57 56 59 -221 539 -138 239 -250 435 -250 436 0 2 33 9 74 15 250 41 415
242 416 511 0 113 47 185 173 264 80 50 142 119 183 202 75 150 71 288 -12
453 -46 89 -49 101 -49 171 0 70 3 82 48 170 54 108 72 186 64 280 -13 154
-98 290 -236 377 -129 82 -160 131 -172 279 -9 120 -21 169 -59 244 -82 161
-219 241 -440 259 -89 7 -118 14 -152 34 -53 31 -96 77 -132 139 -60 107 -192
202 -314 227 -121 25 -222 8 -354 -62 -75 -39 -88 -42 -158 -42 -70 0 -83 3
-158 42 -44 24 -107 50 -139 58 -53 14 -152 18 -198 8z m239 -242 c106 -53
171 -71 256 -71 84 0 150 18 255 71 101 50 158 58 239 35 68 -20 136 -84 201
-187 48 -76 136 -147 222 -179 39 -15 95 -25 169 -30 130 -9 183 -30 243 -95
56 -61 71 -103 80 -230 6 -71 17 -130 31 -168 32 -86 103 -174 179 -222 102
-64 164 -130 185 -199 26 -81 17 -139 -38 -251 -52 -105 -66 -155 -66 -245 0
-90 14 -140 66 -245 54 -111 64 -170 39 -249 -23 -71 -67 -121 -170 -189 -147
-97 -211 -211 -226 -402 -9 -127 -24 -169 -80 -230 -59 -64 -110 -84 -242 -94
-194 -15 -307 -78 -404 -226 -69 -104 -121 -151 -191 -171 -78 -23 -139 -13
-247 40 -105 52 -155 66 -245 66 -90 0 -140 -14 -245 -66 -111 -54 -170 -64
-249 -39 -71 23 -121 67 -189 170 -97 148 -210 211 -404 226 -132 10 -183 30
-242 94 -56 61 -71 103 -80 230 -15 191 -79 305 -226 402 -103 68 -147 118
-170 188 -25 80 -17 138 34 240 53 105 71 171 71 255 -1 90 -14 140 -66 245
-54 109 -63 168 -40 249 20 68 83 136 187 201 76 48 147 136 179 222 14 38 25
97 31 168 9 127 24 169 80 230 60 65 113 86 243 95 74 5 130 15 169 30 86 32
174 103 222 179 126 201 253 245 439 152z m-579 -3546 c80 -124 176 -198 300
-231 66 -18 190 -18 250 1 27 8 50 13 51 12 1 -1 -94 -167 -211 -370 l-213
-367 -26 97 c-15 54 -42 154 -60 223 -36 129 -50 153 -103 166 -16 4 -103 -14
-235 -50 -116 -31 -213 -55 -215 -52 -3 2 82 155 189 339 159 277 195 333 207
324 8 -7 37 -48 66 -92z m1945 -233 c106 -183 190 -335 188 -338 -3 -2 -100
21 -216 52 -130 35 -220 54 -235 50 -58 -14 -66 -32 -128 -261 -33 -120 -61
-220 -62 -221 -3 -2 -425 730 -423 733 1 1 24 -4 51 -12 26 -8 83 -15 125 -15
175 0 325 84 421 238 38 62 80 115 84 109 2 -1 89 -152 195 -335z"/>
<path d="M2370 4570 c-220 -31 -481 -126 -508 -185 -21 -45 -15 -81 19 -114
40 -41 65 -40 187 9 193 78 360 106 557 96 327 -17 600 -139 836 -375 186
-185 300 -394 355 -651 26 -119 26 -381 0 -500 -55 -257 -169 -466 -355 -651
-260 -261 -596 -393 -956 -376 -329 15 -611 141 -846 376 -234 233 -358 510
-375 836 -10 197 18 364 96 557 49 123 50 150 9 189 -34 31 -71 37 -114 17
-48 -22 -125 -209 -167 -401 -32 -146 -32 -447 0 -589 103 -467 389 -834 807
-1038 118 -58 218 -92 352 -122 142 -31 445 -31 585 0 595 131 1032 568 1159
1155 25 120 35 343 20 467 -42 341 -191 644 -436 885 -118 116 -241 203 -390
275 -211 102 -364 139 -605 145 -91 2 -194 0 -230 -5z"/>
<path d="M1542 4165 c-44 -19 -67 -73 -52 -120 23 -69 109 -88 161 -36 51 51
33 137 -33 160 -38 13 -35 13 -76 -4z"/>
<path d="M2680 3874 c-58 -25 -99 -63 -147 -137 -57 -85 -147 -183 -214 -233
l-48 -35 -46 15 c-34 12 -88 16 -218 16 -146 0 -178 -3 -212 -19 -47 -22 -89
-64 -104 -104 -7 -19 -11 -183 -11 -475 0 -503 0 -501 76 -558 l37 -29 211 -3
211 -3 45 29 45 28 75 -25 c74 -25 80 -26 436 -29 347 -3 362 -2 417 18 69 26
143 94 177 165 25 50 25 52 25 350 0 340 -2 348 -84 438 -62 67 -142 99 -264
105 -66 3 -97 8 -94 16 46 127 59 183 55 240 -12 145 -122 246 -268 246 -36
-1 -81 -8 -100 -16z m150 -204 c28 -28 26 -49 -17 -173 -30 -90 -41 -111 -65
-123 -43 -22 -63 -69 -49 -115 19 -63 33 -67 257 -71 295 -5 287 6 282 -366
l-3 -244 -37 -34 -38 -34 -316 0 c-326 0 -389 6 -466 46 l-28 15 0 353 0 354
63 45 c83 59 197 174 255 256 25 36 54 76 65 89 26 28 70 29 97 2z m-690 -770
l0 -390 -130 0 -130 0 0 390 0 390 130 0 130 0 0 -390z"/>
</g>
</svg>
