<?xml version="1.0" standalone="no"?>
<!DOCTYPE svg PUBLIC "-//W3C//DTD SVG 20010904//EN"
 "http://www.w3.org/TR/2001/REC-SVG-20010904/DTD/svg10.dtd">
<svg version="1.0" xmlns="http://www.w3.org/2000/svg"
 width="512.000000pt" height="512.000000pt" viewBox="0 0 512.000000 512.000000"
 preserveAspectRatio="xMidYMid meet">

<g transform="translate(0.000000,512.000000) scale(0.100000,-0.100000)"
fill="#000000" stroke="none">
<path d="M2872 4590 c-64 -39 -72 -66 -72 -246 l0 -160 -52 -13 c-216 -54
-511 -211 -696 -371 -68 -58 -77 -71 -80 -104 -4 -41 10 -63 45 -77 33 -12 57
0 143 73 504 425 1227 514 1830 227 179 -85 317 -185 471 -338 153 -154 253
-293 338 -471 308 -651 177 -1429 -326 -1937 -45 -45 -87 -91 -93 -102 -24
-46 16 -101 75 -101 25 0 47 18 140 113 141 144 226 265 320 450 79 157 130
299 164 457 159 745 -161 1521 -803 1944 -122 80 -322 176 -455 216 l-111 35
0 155 c0 175 -9 207 -69 247 -34 23 -37 23 -385 23 -333 0 -353 -1 -384 -20z
m678 -250 l0 -119 -52 7 c-69 9 -427 9 -495 0 l-53 -7 0 119 0 120 300 0 300
0 0 -120z"/>
<path d="M3049 3769 c-456 -67 -863 -367 -1064 -784 -262 -546 -149 -1191 284
-1615 479 -469 1222 -536 1773 -162 325 221 542 565 605 957 19 122 13 382
-12 494 -60 270 -180 493 -372 692 -125 129 -239 212 -398 290 -204 99 -385
140 -620 138 -77 -1 -165 -5 -196 -10z m131 -256 c0 -106 2 -119 22 -140 30
-33 80 -31 107 3 19 24 21 41 21 141 l0 115 53 -7 c153 -20 274 -54 406 -116
93 -43 233 -133 270 -173 l25 -26 -82 -84 c-91 -93 -100 -119 -57 -161 42 -43
68 -34 161 57 l84 82 26 -25 c33 -31 123 -166 162 -244 61 -123 108 -286 126
-437 l6 -48 -114 0 c-99 0 -117 -3 -140 -21 -33 -26 -35 -73 -4 -106 20 -22
29 -23 140 -23 l119 0 -6 -47 c-33 -247 -113 -450 -248 -632 l-60 -81 -87 85
c-97 94 -122 104 -165 60 -43 -42 -34 -68 55 -159 44 -45 80 -87 80 -92 0 -19
-158 -126 -263 -179 -121 -61 -229 -97 -361 -120 -138 -24 -126 -33 -126 100
0 110 -1 117 -25 140 -30 31 -71 32 -102 3 -22 -20 -23 -29 -23 -140 0 -137
13 -126 -131 -102 -214 37 -398 117 -572 252 l-58 44 87 89 c81 83 86 91 80
121 -8 41 -23 56 -64 64 -30 6 -38 1 -121 -81 l-89 -87 -60 80 c-136 183 -225
405 -247 615 l-7 67 116 0 c111 0 118 1 141 25 32 31 32 69 0 100 -23 24 -30
25 -141 25 l-116 0 7 68 c16 150 80 346 157 477 50 85 138 205 152 205 5 0 47
-36 92 -80 87 -85 113 -96 153 -62 11 9 24 32 27 50 6 30 1 38 -80 120 l-86
88 37 30 c167 133 385 233 573 264 41 6 82 13 90 15 62 12 60 15 60 -112z"/>
<path d="M3223 3020 c-12 -5 -26 -18 -32 -29 -7 -13 -11 -127 -11 -321 l0
-301 25 -24 c46 -47 61 -38 232 136 174 177 186 197 139 244 -43 43 -69 34
-162 -57 l-84 -82 0 187 c0 205 -5 230 -53 247 -16 5 -30 10 -31 9 -1 0 -11
-4 -23 -9z"/>
<path d="M1765 3498 c-54 -63 -141 -208 -201 -333 -172 -362 -218 -775 -134
-1183 110 -528 470 -1001 960 -1260 537 -283 1206 -282 1740 5 128 68 150 87
150 129 0 39 -36 84 -67 84 -10 0 -58 -23 -108 -51 -353 -198 -743 -269 -1130
-204 -760 126 -1340 740 -1424 1507 -45 402 56 801 288 1149 43 65 71 117 71
133 0 37 -33 66 -74 66 -28 0 -41 -8 -71 -42z"/>
<path d="M562 3287 c-29 -31 -28 -72 3 -102 l24 -25 334 0 c323 0 335 1 361
21 34 27 36 79 4 109 -21 19 -33 20 -363 20 l-342 0 -21 -23z"/>
<path d="M325 2845 c-14 -13 -25 -36 -25 -50 0 -14 11 -37 25 -50 l24 -25 404
0 c394 0 405 1 431 21 33 26 36 79 6 109 -19 19 -33 20 -430 20 l-411 0 -24
-25z"/>
<path d="M21 2404 c-26 -33 -27 -65 -2 -95 l19 -24 509 -3 c505 -2 510 -2 536
18 34 27 37 80 7 110 -19 19 -33 20 -534 20 l-515 0 -20 -26z"/>
<path d="M343 2020 c-45 -18 -55 -72 -22 -114 l20 -26 415 0 c401 0 415 1 434
20 30 30 27 83 -6 109 -26 20 -37 21 -423 20 -218 0 -406 -4 -418 -9z"/>
<path d="M565 1565 c-32 -31 -33 -74 -2 -103 23 -22 28 -22 365 -22 329 0 343
1 362 20 30 30 27 83 -6 109 -26 20 -38 21 -361 21 l-334 0 -24 -25z"/>
</g>
</svg>
