<?xml version="1.0" standalone="no"?>
<!DOCTYPE svg PUBLIC "-//W3C//DTD SVG 20010904//EN"
 "http://www.w3.org/TR/2001/REC-SVG-20010904/DTD/svg10.dtd">
<svg version="1.0" xmlns="http://www.w3.org/2000/svg"
 width="500.000000pt" height="500.000000pt" viewBox="0 0 500.000000 500.000000"
 preserveAspectRatio="xMidYMid meet">

<g transform="translate(0.000000,500.000000) scale(0.100000,-0.100000)"
fill="#000000" stroke="none">
<path d="M660 2710 l0 -842 428 5 c477 5 532 11 689 79 203 88 360 249 432
443 39 107 42 100 -57 120 -99 19 -229 58 -286 86 -42 20 -56 14 -56 -22 0 -9
-16 -48 -35 -86 -44 -88 -121 -163 -212 -206 l-68 -32 -210 -5 -210 -5 3 463
2 464 213 -4 c172 -3 219 -7 250 -20 36 -16 38 -16 43 0 37 115 88 192 171
256 28 23 52 43 52 46 2 11 -137 59 -219 76 -71 15 -155 18 -507 22 l-423 4 0
-842z"/>
<path d="M2440 3228 l0 -323 78 -24 c88 -28 207 -87 254 -126 18 -15 48 -45
65 -67 l32 -40 3 158 3 158 37 -94 c92 -237 166 -427 271 -700 l113 -295 94 0
95 0 92 240 c52 132 143 368 204 525 60 157 114 294 119 305 5 12 9 -193 9
-527 l1 -548 215 0 215 0 0 840 0 840 -299 0 -299 0 -25 -62 c-14 -35 -66
-171 -117 -303 -167 -439 -203 -530 -209 -537 -4 -4 -34 65 -68 155 -34 89
-111 293 -172 452 l-109 290 -301 3 -301 2 0 -322z"/>
<path d="M1915 3215 c-163 -42 -224 -87 -280 -207 -28 -60 -32 -122 -11 -173
11 -26 19 -33 32 -28 13 5 15 3 9 -7 -5 -9 -4 -11 4 -6 6 4 9 11 6 16 -7 11
308 330 325 330 5 0 10 6 10 13 0 6 14 23 30 36 17 13 30 27 30 32 0 13 -97 9
-155 -6z"/>
<path d="M2063 3161 c-51 -32 -68 -85 -39 -123 23 -31 206 -100 206 -77 0 18
-44 125 -70 168 -30 53 -52 60 -97 32z"/>
<path d="M2440 2345 c0 -41 4 -75 9 -75 17 0 41 44 41 75 0 31 -24 75 -41 75
-5 0 -9 -34 -9 -75z"/>
<path d="M2830 2090 c-65 -91 -195 -172 -328 -205 -54 -13 -47 -13 156 -14
l212 -1 0 135 c0 74 -1 135 -2 135 -2 -1 -19 -23 -38 -50z"/>
<path d="M660 1780 c0 -7 620 -10 1840 -10 1220 0 1840 3 1840 10 0 7 -620 10
-1840 10 -1220 0 -1840 -3 -1840 -10z"/>
<path d="M1064 1700 c-28 -11 -64 -58 -64 -82 0 -28 27 -76 49 -88 31 -16 76
-12 105 11 14 11 26 25 26 30 0 12 -37 12 -45 -1 -12 -20 -64 -11 -80 14 -33
50 30 112 74 72 22 -20 51 -21 51 -1 0 31 -78 61 -116 45z"/>
<path d="M1490 1703 c-28 -10 -59 -45 -65 -74 -7 -32 16 -83 44 -99 60 -32
141 16 141 82 -1 63 -64 111 -120 91z m58 -49 c27 -19 28 -55 3 -78 -27 -24
-62 -17 -81 17 -14 27 -14 29 13 53 33 28 36 29 65 8z"/>
<path d="M1864 1700 c-32 -13 -54 -50 -54 -91 0 -81 97 -120 153 -61 45 47 34
117 -23 147 -32 17 -45 18 -76 5z m64 -46 c41 -28 19 -94 -32 -94 -30 0 -46
18 -46 51 0 24 30 59 50 59 3 0 16 -7 28 -16z"/>
<path d="M2088 1694 c-85 -46 -53 -174 44 -174 47 0 88 35 88 75 0 24 -3 26
-42 23 -46 -3 -63 -25 -24 -30 19 -2 23 -7 17 -17 -11 -17 -56 -18 -76 -1 -21
17 -19 63 3 83 23 21 42 21 68 2 10 -8 27 -15 37 -15 26 0 5 36 -33 55 -36 18
-47 18 -82 -1z"/>
<path d="M2943 1700 c-57 -23 -46 -81 19 -102 24 -8 43 -21 43 -29 0 -20 -54
-24 -61 -5 -8 20 -44 21 -44 2 0 -42 102 -62 133 -28 36 39 12 80 -55 96 -34
8 -38 36 -5 36 13 0 28 -5 34 -11 6 -6 19 -9 28 -7 16 3 16 5 -1 25 -22 26
-60 36 -91 23z"/>
<path d="M3775 1696 c-32 -14 -55 -52 -55 -90 0 -28 33 -72 61 -81 12 -4 18
-12 15 -21 -3 -8 -1 -14 4 -14 6 0 10 -4 10 -10 0 -5 -8 -10 -17 -10 -13 0
-14 -3 -6 -11 7 -7 19 -9 27 -6 19 8 21 43 4 50 -7 3 0 10 17 17 33 13 65 38
65 52 0 12 -37 10 -59 -3 -27 -17 -70 -3 -77 25 -13 52 37 91 81 62 26 -17 55
-21 55 -8 0 15 -44 50 -70 56 -14 3 -39 0 -55 -8z"/>
<path d="M3995 1696 c-59 -26 -72 -101 -26 -147 56 -56 145 -27 157 52 5 30 2
41 -22 67 -35 38 -69 46 -109 28z m87 -62 c14 -31 -13 -74 -46 -74 -33 0 -60
33 -52 65 12 47 78 53 98 9z"/>
<path d="M4213 1700 c-57 -23 -46 -81 19 -102 24 -8 43 -21 43 -29 0 -20 -54
-24 -61 -5 -8 20 -44 21 -44 2 0 -42 102 -62 133 -28 36 39 12 80 -55 96 -34
8 -38 36 -5 36 13 0 28 -5 34 -11 6 -6 19 -9 28 -7 16 3 16 5 -1 25 -22 26
-60 36 -91 23z"/>
<path d="M670 1685 c0 -9 9 -15 25 -15 24 0 25 -2 25 -75 0 -68 2 -75 20 -75
18 0 20 7 20 75 0 73 1 75 25 75 16 0 25 6 25 15 0 12 -14 15 -70 15 -56 0
-70 -3 -70 -15z"/>
<path d="M850 1610 l0 -90 55 0 c48 0 55 2 55 20 0 16 -7 20 -35 20 -46 0 -49
27 -3 32 22 2 34 9 36 21 3 14 -4 17 -32 17 -29 0 -36 4 -36 20 0 16 7 20 35
20 24 0 35 5 35 15 0 12 -13 15 -55 15 l-55 0 0 -90z"/>
<path d="M1230 1610 c0 -83 1 -90 20 -90 18 0 20 7 20 58 l1 57 32 -57 c24
-44 38 -58 55 -58 21 0 22 3 22 90 0 83 -2 90 -19 90 -17 0 -20 -8 -23 -52
l-3 -53 -30 52 c-22 39 -36 53 -52 53 -22 0 -23 -3 -23 -90z"/>
<path d="M1660 1610 l0 -90 50 0 c43 0 50 3 50 20 0 16 -7 20 -30 20 l-30 0 0
70 c0 63 -2 70 -20 70 -19 0 -20 -7 -20 -90z"/>
<path d="M2270 1610 c0 -83 1 -90 20 -90 19 0 20 7 20 90 0 83 -1 90 -20 90
-19 0 -20 -7 -20 -90z"/>
<path d="M2389 1619 c-19 -46 -35 -87 -37 -91 -8 -18 38 -7 48 12 7 14 21 20
44 20 25 0 35 -5 39 -20 3 -12 14 -20 26 -20 12 0 21 1 21 3 0 2 -15 41 -34
88 -47 116 -62 117 -107 8z m70 -16 c1 -7 -8 -13 -19 -13 -23 0 -23 0 -9 37
10 26 12 27 19 8 5 -11 9 -26 9 -32z"/>
<path d="M2660 1610 l0 -90 56 0 c47 0 55 3 52 18 -2 11 -14 18 -36 20 -42 4
-44 32 -2 32 23 0 30 4 30 20 0 16 -7 20 -30 20 -23 0 -30 4 -30 20 0 16 7 20
35 20 24 0 35 5 35 15 0 12 -13 15 -55 15 l-55 0 0 -90z"/>
<path d="M3100 1610 l0 -90 50 0 c43 0 50 3 50 20 0 16 -7 20 -30 20 -20 0
-30 5 -30 15 0 10 10 15 30 15 23 0 30 4 30 20 0 16 -7 20 -30 20 -23 0 -30 4
-30 20 0 16 7 20 30 20 20 0 30 5 30 15 0 11 -12 15 -50 15 l-50 0 0 -90z"/>
<path d="M3260 1610 c0 -83 1 -90 20 -90 15 0 20 7 20 28 l1 27 20 -27 c13
-18 30 -28 46 -28 l25 0 -24 33 c-23 31 -24 33 -6 50 10 9 18 28 18 41 0 37
-25 56 -76 56 l-44 0 0 -90z m75 35 c0 -11 -8 -21 -17 -23 -14 -3 -18 3 -18
23 0 20 4 26 18 23 9 -2 17 -12 17 -23z"/>
<path d="M3420 1693 c0 -4 15 -45 33 -91 40 -104 56 -106 96 -12 45 106 47
112 20 108 -17 -2 -26 -16 -41 -57 -10 -30 -20 -56 -22 -58 -2 -3 -14 23 -27
56 -16 45 -27 61 -40 61 -11 0 -19 -3 -19 -7z"/>
<path d="M3630 1610 c0 -83 1 -90 20 -90 19 0 20 7 20 90 0 83 -1 90 -20 90
-19 0 -20 -7 -20 -90z"/>
</g>
</svg>
